<svg xmlns="http://www.w3.org/2000/svg" xmlns:xlink="http://www.w3.org/1999/xlink" width="1366" zoomAndPan="magnify" viewBox="0 0 1024.5 576" height="768" preserveAspectRatio="xMidYMid meet" version="1.0"><defs><g/><clipPath id="03f9fd3050"><path d="M 469 25 L 998 25 L 998 490 L 469 490 Z M 469 25 " clip-rule="nonzero"/></clipPath><clipPath id="c9592f663e"><path d="M 402.421875 232.621094 L 880.324219 -100.355469 L 1119.449219 242.847656 L 641.546875 575.824219 Z M 402.421875 232.621094 " clip-rule="nonzero"/></clipPath><clipPath id="ec5238c062"><path d="M 402.421875 232.621094 L 880.324219 -100.355469 L 1119.449219 242.847656 L 641.546875 575.824219 Z M 402.421875 232.621094 " clip-rule="nonzero"/></clipPath></defs><g clip-path="url(#03f9fd3050)"><g clip-path="url(#c9592f663e)"><g clip-path="url(#ec5238c062)"><path fill="#fb2576" d="M 982.105469 66.171875 C 986.988281 72.882812 992.863281 75.738281 997.242188 76.925781 C 994.816406 85.867188 992.34375 94.785156 989.828125 103.691406 C 982.53125 101.636719 969.839844 96.1875 959.914062 82.550781 C 955.34375 98.996094 950.625 115.402344 945.757812 131.761719 C 940.199219 150.449219 934.441406 169.082031 928.460938 187.652344 C 922.480469 206.222656 916.269531 224.730469 909.78125 243.15625 C 903.289062 261.585938 896.511719 279.933594 889.351562 298.167969 C 882.1875 316.402344 874.648438 334.523438 866.511719 352.457031 C 858.375 370.390625 849.664062 388.144531 839.886719 405.53125 C 830.050781 422.886719 819.324219 439.972656 805.726562 455.871094 C 798.875 463.777344 791.265625 471.425781 781.867188 477.980469 C 777.132812 481.21875 771.921875 484.175781 766.03125 486.375 C 763.09375 487.476562 759.960938 488.332031 756.734375 488.964844 C 753.480469 489.542969 750.113281 489.835938 746.714844 489.789062 C 743.3125 489.6875 739.910156 489.261719 736.609375 488.492188 C 733.542969 487.59375 730.496094 486.84375 727.546875 485.46875 C 724.542969 484.316406 721.75 482.628906 718.96875 480.988281 C 717.652344 480.058594 716.34375 479.113281 715.046875 478.15625 C 714.378906 477.691406 713.773438 477.171875 713.191406 476.632812 L 711.414062 475.035156 C 706.777344 470.714844 702.875 465.808594 699.914062 460.722656 L 698.753906 458.820312 L 697.753906 456.894531 C 697.097656 455.605469 696.40625 454.320312 695.796875 453.023438 C 694.695312 450.433594 693.464844 447.832031 692.597656 445.226562 C 688.800781 434.800781 686.601562 424.402344 685.15625 414.167969 C 683.707031 403.925781 682.96875 393.796875 682.585938 383.753906 C 681.855469 363.671875 682.523438 343.914062 683.585938 324.324219 C 684.65625 304.730469 686.175781 285.300781 687.644531 265.976562 C 689.113281 246.648438 690.554688 227.425781 691.414062 208.335938 C 692.246094 189.277344 692.605469 170.253906 691.082031 151.960938 C 690.304688 142.839844 689.015625 133.910156 686.867188 125.679688 L 685.976562 122.675781 L 685.53125 121.171875 L 685.011719 119.75 C 684.660156 118.804688 684.339844 117.835938 683.976562 116.910156 L 682.800781 114.25 C 681.164062 110.8125 679.292969 107.75 677.203125 105.34375 C 675.066406 103.011719 672.785156 101.320312 670.191406 100.132812 C 669.535156 99.847656 668.917969 99.484375 668.171875 99.332031 L 667.105469 99.003906 C 666.746094 98.898438 666.433594 98.746094 665.980469 98.695312 C 665.136719 98.542969 664.300781 98.382812 663.460938 98.203125 L 660.914062 97.957031 C 657.507812 97.746094 654.023438 98.042969 650.472656 98.824219 C 646.921875 99.589844 643.320312 101.011719 639.738281 102.703125 C 632.554688 106.136719 625.574219 111.261719 618.957031 117.035156 C 612.359375 122.90625 606.113281 129.515625 600.183594 136.519531 C 588.347656 150.597656 577.742188 166.1875 567.890625 182.304688 C 558.046875 198.453125 548.964844 215.207031 540.421875 232.28125 C 531.890625 249.359375 523.867188 266.75 516.308594 284.355469 C 512.527344 293.152344 508.859375 302.007812 505.308594 310.902344 C 503.53125 315.347656 501.789062 319.804688 500.082031 324.265625 C 498.386719 328.699219 496.675781 333.257812 495.136719 337.566406 L 469.148438 328.390625 C 470.871094 323.566406 472.574219 319.046875 474.339844 314.417969 C 476.097656 309.820312 477.890625 305.246094 479.710938 300.683594 C 483.351562 291.5625 487.109375 282.492188 490.988281 273.472656 C 498.738281 255.425781 506.96875 237.574219 515.777344 219.945312 C 524.59375 202.324219 534.011719 184.9375 544.359375 167.953125 C 554.738281 150.992188 565.980469 134.382812 579.121094 118.746094 C 585.722656 110.953125 592.8125 103.40625 600.710938 96.378906 C 608.691406 89.429688 617.425781 82.867188 627.757812 77.882812 C 632.925781 75.429688 638.40625 73.269531 644.34375 71.953125 C 650.257812 70.628906 656.519531 70.050781 662.792969 70.457031 C 664.355469 70.605469 665.925781 70.738281 667.480469 70.9375 L 672.105469 71.824219 C 672.859375 71.941406 673.6875 72.21875 674.488281 72.453125 L 676.898438 73.191406 C 678.515625 73.628906 680.074219 74.363281 681.636719 75.058594 C 687.867188 77.878906 693.457031 82.167969 697.8125 87.046875 C 702.113281 91.960938 705.257812 97.292969 707.78125 102.601562 L 709.535156 106.601562 C 710.0625 107.929688 710.519531 109.257812 711.007812 110.589844 L 711.722656 112.585938 L 712.316406 114.570312 L 713.488281 118.542969 C 716.238281 129.089844 717.664062 139.4375 718.546875 149.636719 C 720.226562 170.027344 719.789062 189.886719 718.945312 209.566406 C 718.058594 229.238281 716.597656 248.707031 715.125 268.0625 C 713.652344 287.421875 712.148438 306.675781 711.105469 325.824219 C 710.0625 344.960938 709.441406 364.023438 710.128906 382.722656 C 710.480469 392.058594 711.171875 401.304688 712.4375 410.269531 C 713.6875 419.230469 715.609375 427.90625 718.464844 435.710938 C 719.113281 437.722656 720.007812 439.492188 720.769531 441.375 C 721.199219 442.269531 721.667969 443.113281 722.105469 443.992188 L 722.769531 445.296875 L 723.519531 446.492188 C 725.414062 449.804688 727.691406 452.515625 730.128906 454.804688 L 731.050781 455.644531 C 731.347656 455.941406 731.65625 456.21875 732.003906 456.429688 C 732.667969 456.894531 733.324219 457.371094 733.96875 457.867188 C 735.390625 458.625 736.722656 459.539062 738.277344 460.082031 C 739.710938 460.824219 741.429688 461.144531 742.988281 461.679688 C 744.417969 462.003906 745.84375 462.175781 747.289062 462.238281 C 748.742188 462.238281 750.222656 462.121094 751.746094 461.863281 C 753.273438 461.539062 754.839844 461.144531 756.441406 460.535156 C 759.644531 459.34375 762.960938 457.527344 766.222656 455.292969 C 772.765625 450.746094 779.042969 444.617188 784.859375 437.871094 C 796.519531 424.269531 806.621094 408.382812 815.875 392.003906 C 825.117188 375.570312 833.523438 358.46875 841.414062 341.074219 C 849.304688 323.675781 856.675781 305.96875 863.703125 288.09375 C 870.71875 270.214844 877.386719 252.164062 883.785156 234 C 890.183594 215.835938 896.316406 197.558594 902.230469 179.199219 C 908.140625 160.84375 913.839844 142.40625 919.34375 123.90625 C 924.160156 107.707031 928.832031 91.460938 933.355469 75.175781 C 917.835938 81.621094 904.175781 79.488281 896.886719 77.441406 C 899.316406 68.839844 901.703125 60.226562 904.042969 51.613281 C 908.417969 52.800781 914.925781 53.371094 922.484375 50.140625 C 930.027344 46.925781 938.703125 39.8125 947.070312 25.824219 L 972.742188 32.191406 C 973.339844 48.957031 977.214844 59.429688 982.105469 66.171875 Z M 982.105469 66.171875 " fill-opacity="1" fill-rule="nonzero"/></g></g></g><g fill="#ffffff" fill-opacity="1"><g transform="translate(0.000000000000085224, 332.702047)"><g><path d="M 3.261719 0 L 123.9375 0 L 123.9375 -32.613281 L 45.660156 -32.613281 L 45.660156 -43.214844 L 123.9375 -43.214844 L 123.9375 -70.9375 L 45.660156 -70.9375 L 45.660156 -81.535156 L 123.9375 -81.535156 L 123.9375 -114.152344 L 3.261719 -114.152344 Z M 3.261719 0 "/></g></g></g><g fill="#ffffff" fill-opacity="1"><g transform="translate(125.559571, 332.702047)"><g><path d="M 3.261719 0 L 120.675781 0 L 120.675781 -35.875 L 45.660156 -35.875 L 45.660156 -114.152344 L 3.261719 -114.152344 Z M 3.261719 0 "/></g></g></g><g fill="#ffffff" fill-opacity="1"><g transform="translate(247.85785, 332.702047)"><g><path d="M 3.261719 0 L 123.9375 0 L 123.9375 -32.613281 L 45.660156 -32.613281 L 45.660156 -43.214844 L 123.9375 -43.214844 L 123.9375 -70.9375 L 45.660156 -70.9375 L 45.660156 -81.535156 L 123.9375 -81.535156 L 123.9375 -114.152344 L 3.261719 -114.152344 Z M 3.261719 0 "/></g></g></g><g fill="#ffffff" fill-opacity="1"><g transform="translate(373.417421, 332.702047)"><g><path d="M 48.921875 0 L 111.867188 0 L 159.160156 -114.152344 L 112.519531 -114.152344 L 80.394531 -29.351562 L 48.269531 -114.152344 L 1.628906 -114.152344 Z M 48.921875 0 "/></g></g></g><g fill="#ffffff" fill-opacity="1"><g transform="translate(534.198889, 332.702047)"><g><path d="M 1.628906 0 L 48.269531 0 L 56.097656 -20.546875 L 104.695312 -20.546875 L 112.519531 0 L 159.160156 0 L 111.867188 -114.152344 L 48.921875 -114.152344 Z M 67.1875 -49.902344 L 80.394531 -84.796875 L 93.605469 -49.902344 Z M 67.1875 -49.902344 "/></g></g></g><g fill="#ffffff" fill-opacity="1"><g transform="translate(694.980357, 332.702047)"><g><path d="M 50.554688 0 L 92.953125 0 L 92.953125 -78.277344 L 141.875 -78.277344 L 141.875 -114.152344 L 1.628906 -114.152344 L 1.628906 -78.277344 L 50.554688 -78.277344 Z M 50.554688 0 "/></g></g></g><g fill="#ffffff" fill-opacity="1"><g transform="translate(838.477079, 332.702047)"><g><path d="M 3.261719 0 L 123.9375 0 L 123.9375 -32.613281 L 45.660156 -32.613281 L 45.660156 -43.214844 L 123.9375 -43.214844 L 123.9375 -70.9375 L 45.660156 -70.9375 L 45.660156 -81.535156 L 123.9375 -81.535156 L 123.9375 -114.152344 L 3.261719 -114.152344 Z M 3.261719 0 "/></g></g></g><g fill="#fb2576" fill-opacity="1"><g transform="translate(0.000000000000340894, 421.82323)"><g><path d="M 23.019531 0 L 39.375 0 L 39.375 -14.464844 L 61.765625 -44.027344 L 42.898438 -44.027344 L 31.199219 -27.675781 L 19.5 -44.027344 L 0.628906 -44.027344 L 23.019531 -14.464844 Z M 23.019531 0 "/></g></g></g><g fill="#fb2576" fill-opacity="1"><g transform="translate(62.388439, 421.82323)"><g><path d="M 28.304688 0.628906 C 47.613281 0.628906 55.980469 -6.792969 55.980469 -22.078125 C 55.980469 -37.296875 47.613281 -44.65625 28.304688 -44.65625 C 8.929688 -44.65625 0.628906 -37.363281 0.628906 -22.078125 C 0.628906 -6.730469 8.929688 0.628906 28.304688 0.628906 Z M 28.304688 -13.207031 C 18.679688 -13.207031 16.984375 -17.359375 16.984375 -22.078125 C 16.984375 -26.730469 18.617188 -30.820312 28.304688 -30.820312 C 37.992188 -30.820312 39.625 -26.667969 39.625 -22.078125 C 39.625 -17.421875 37.925781 -13.207031 28.304688 -13.207031 Z M 28.304688 -13.207031 "/></g></g></g><g fill="#fb2576" fill-opacity="1"><g transform="translate(118.990856, 421.82323)"><g><path d="M 28.933594 0.628906 C 48.242188 0.628906 56.609375 -6.792969 56.609375 -22.078125 L 56.609375 -44.027344 L 40.253906 -44.027344 L 40.253906 -22.078125 C 40.253906 -17.421875 38.558594 -13.207031 28.933594 -13.207031 C 19.308594 -13.207031 17.613281 -17.359375 17.613281 -22.078125 L 17.613281 -44.027344 L 1.257812 -44.027344 L 1.257812 -22.078125 C 1.257812 -6.730469 9.558594 0.628906 28.933594 0.628906 Z M 28.933594 0.628906 "/></g></g></g><g fill="#fb2576" fill-opacity="1"><g transform="translate(176.851099, 421.82323)"><g><path d="M 1.257812 0 L 17.613281 0 L 17.613281 -10.316406 L 27.234375 -10.316406 L 33.335938 0 L 52.707031 0 L 44.910156 -12.640625 C 49.753906 -15.472656 52.707031 -20.757812 52.707031 -27.171875 C 52.707031 -36.984375 45.851562 -44.027344 35.851562 -44.027344 L 1.257812 -44.027344 Z M 17.613281 -24.152344 L 17.613281 -30.191406 L 32.707031 -30.191406 C 34.34375 -30.191406 36.355469 -30.191406 36.355469 -27.171875 C 36.355469 -24.152344 34.34375 -24.152344 32.707031 -24.152344 Z M 17.613281 -24.152344 "/></g></g></g><g fill="#fb2576" fill-opacity="1"><g transform="translate(230.183158, 421.82323)"><g/></g></g><g fill="#fb2576" fill-opacity="1"><g transform="translate(255.339793, 421.82323)"><g><path d="M 1.257812 0 L 41.511719 0 C 51.515625 0 55.855469 -5.785156 55.855469 -13.019531 C 55.855469 -17.800781 53.085938 -21.824219 49.25 -24.59375 C 51.386719 -27.109375 52.707031 -30.003906 52.707031 -32.832031 C 52.707031 -39.5 49.625 -44.027344 39.625 -44.027344 L 1.257812 -44.027344 Z M 17.613281 -28.554688 L 17.613281 -33.335938 L 32.707031 -33.335938 C 34.34375 -33.335938 36.355469 -33.335938 36.355469 -30.945312 C 36.355469 -28.554688 34.34375 -28.554688 32.707031 -28.554688 Z M 17.613281 -11.949219 L 17.613281 -16.605469 L 35.851562 -16.605469 C 37.488281 -16.605469 39.5 -16.605469 39.5 -14.277344 C 39.5 -11.949219 37.488281 -11.949219 35.851562 -11.949219 Z M 17.613281 -11.949219 "/></g></g></g><g fill="#fb2576" fill-opacity="1"><g transform="translate(311.816414, 421.82323)"><g><path d="M 28.933594 0.628906 C 48.242188 0.628906 56.609375 -6.792969 56.609375 -22.078125 L 56.609375 -44.027344 L 40.253906 -44.027344 L 40.253906 -22.078125 C 40.253906 -17.421875 38.558594 -13.207031 28.933594 -13.207031 C 19.308594 -13.207031 17.613281 -17.359375 17.613281 -22.078125 L 17.613281 -44.027344 L 1.257812 -44.027344 L 1.257812 -22.078125 C 1.257812 -6.730469 9.558594 0.628906 28.933594 0.628906 Z M 28.933594 0.628906 "/></g></g></g><g fill="#fb2576" fill-opacity="1"><g transform="translate(369.676668, 421.82323)"><g><path d="M 28.746094 0.628906 C 46.796875 0.628906 56.859375 -2.453125 56.859375 -14.59375 C 56.859375 -26.101562 46.105469 -27.296875 28.746094 -27.988281 C 19.183594 -28.367188 17.613281 -28.304688 17.613281 -30.003906 C 17.613281 -31.699219 19.183594 -32.078125 26.859375 -32.078125 C 34.84375 -32.078125 38.621094 -31.574219 38.621094 -29.246094 L 54.972656 -29.246094 C 54.972656 -40.507812 45.285156 -44.65625 28.117188 -44.65625 C 10.753906 -44.65625 1.257812 -40.507812 1.257812 -30.820312 C 1.257812 -20.566406 8.867188 -17.296875 28.746094 -16.667969 C 39.058594 -16.355469 40.507812 -16.101562 40.507812 -14.214844 C 40.507812 -12.578125 39.058594 -11.949219 29.375 -11.949219 C 18.996094 -11.949219 16.984375 -13.398438 16.984375 -15.535156 L 0.628906 -15.535156 C 0.628906 -2.453125 10.691406 0.628906 28.746094 0.628906 Z M 28.746094 0.628906 "/></g></g></g><g fill="#fb2576" fill-opacity="1"><g transform="translate(427.15956, 421.82323)"><g><path d="M 1.257812 0 L 17.613281 0 L 17.613281 -44.027344 L 1.257812 -44.027344 Z M 1.257812 0 "/></g></g></g><g fill="#fb2576" fill-opacity="1"><g transform="translate(446.027025, 421.82323)"><g><path d="M 1.257812 0 L 17.613281 0 L 17.613281 -25.976562 L 36.605469 0 L 57.992188 0 L 57.992188 -44.027344 L 41.640625 -44.027344 L 41.640625 -18.050781 L 22.644531 -44.027344 L 1.257812 -44.027344 Z M 1.257812 0 "/></g></g></g><g fill="#fb2576" fill-opacity="1"><g transform="translate(505.270869, 421.82323)"><g><path d="M 1.257812 0 L 47.800781 0 L 47.800781 -12.578125 L 17.613281 -12.578125 L 17.613281 -16.667969 L 47.800781 -16.667969 L 47.800781 -27.359375 L 17.613281 -27.359375 L 17.613281 -31.449219 L 47.800781 -31.449219 L 47.800781 -44.027344 L 1.257812 -44.027344 Z M 1.257812 0 "/></g></g></g><g fill="#fb2576" fill-opacity="1"><g transform="translate(553.697369, 421.82323)"><g><path d="M 28.746094 0.628906 C 46.796875 0.628906 56.859375 -2.453125 56.859375 -14.59375 C 56.859375 -26.101562 46.105469 -27.296875 28.746094 -27.988281 C 19.183594 -28.367188 17.613281 -28.304688 17.613281 -30.003906 C 17.613281 -31.699219 19.183594 -32.078125 26.859375 -32.078125 C 34.84375 -32.078125 38.621094 -31.574219 38.621094 -29.246094 L 54.972656 -29.246094 C 54.972656 -40.507812 45.285156 -44.65625 28.117188 -44.65625 C 10.753906 -44.65625 1.257812 -40.507812 1.257812 -30.820312 C 1.257812 -20.566406 8.867188 -17.296875 28.746094 -16.667969 C 39.058594 -16.355469 40.507812 -16.101562 40.507812 -14.214844 C 40.507812 -12.578125 39.058594 -11.949219 29.375 -11.949219 C 18.996094 -11.949219 16.984375 -13.398438 16.984375 -15.535156 L 0.628906 -15.535156 C 0.628906 -2.453125 10.691406 0.628906 28.746094 0.628906 Z M 28.746094 0.628906 "/></g></g></g><g fill="#fb2576" fill-opacity="1"><g transform="translate(611.180261, 421.82323)"><g><path d="M 28.746094 0.628906 C 46.796875 0.628906 56.859375 -2.453125 56.859375 -14.59375 C 56.859375 -26.101562 46.105469 -27.296875 28.746094 -27.988281 C 19.183594 -28.367188 17.613281 -28.304688 17.613281 -30.003906 C 17.613281 -31.699219 19.183594 -32.078125 26.859375 -32.078125 C 34.84375 -32.078125 38.621094 -31.574219 38.621094 -29.246094 L 54.972656 -29.246094 C 54.972656 -40.507812 45.285156 -44.65625 28.117188 -44.65625 C 10.753906 -44.65625 1.257812 -40.507812 1.257812 -30.820312 C 1.257812 -20.566406 8.867188 -17.296875 28.746094 -16.667969 C 39.058594 -16.355469 40.507812 -16.101562 40.507812 -14.214844 C 40.507812 -12.578125 39.058594 -11.949219 29.375 -11.949219 C 18.996094 -11.949219 16.984375 -13.398438 16.984375 -15.535156 L 0.628906 -15.535156 C 0.628906 -2.453125 10.691406 0.628906 28.746094 0.628906 Z M 28.746094 0.628906 "/></g></g></g></svg>