<svg xmlns="http://www.w3.org/2000/svg" xmlns:xlink="http://www.w3.org/1999/xlink" width="1920" zoomAndPan="magnify" viewBox="0 0 1440 809.999993" height="1080" preserveAspectRatio="xMidYMid meet" version="1.0"><defs><g/><clipPath id="33bdc9acdc"><path d="M 748 162 L 1432 162 L 1432 667 L 748 667 Z M 748 162 " clip-rule="nonzero"/></clipPath><clipPath id="6e2f873c5c"><path d="M 716.75 235.710938 L 1379.316406 75.117188 L 1494.683594 551.085938 L 832.117188 711.679688 Z M 716.75 235.710938 " clip-rule="nonzero"/></clipPath><clipPath id="bacb5c8db4"><path d="M 716.75 235.710938 L 1379.316406 75.117188 L 1494.683594 551.085938 L 832.117188 711.679688 Z M 716.75 235.710938 " clip-rule="nonzero"/></clipPath><clipPath id="2bb98defe2"><path d="M 0 337.621094 L 123 337.621094 L 123 461.371094 L 0 461.371094 Z M 0 337.621094 " clip-rule="nonzero"/></clipPath></defs><rect x="-144" width="1728" fill="#ffffff" y="-80.999999" height="971.999992" fill-opacity="1"/><rect x="-144" width="1728" fill="#ffffff" y="-80.999999" height="971.999992" fill-opacity="1"/><g clip-path="url(#33bdc9acdc)"><g clip-path="url(#6e2f873c5c)"><g clip-path="url(#bacb5c8db4)"><path fill="#ff914d" d="M 1419.78125 299.945312 C 1422.261719 309.339844 1427.460938 314.945312 1431.734375 318.097656 C 1425.292969 326.824219 1418.8125 335.507812 1412.292969 344.15625 C 1405.203125 338.824219 1393.667969 327.492188 1388.621094 308.402344 C 1376.660156 324.410156 1364.558594 340.304688 1352.308594 356.09375 C 1338.320312 374.121094 1324.136719 392.007812 1309.734375 409.730469 C 1295.335938 427.457031 1280.710938 445.011719 1265.8125 462.367188 C 1250.914062 479.71875 1235.738281 496.863281 1220.199219 513.722656 C 1204.644531 530.574219 1188.734375 547.148438 1172.253906 563.265625 C 1155.769531 579.378906 1138.738281 595.054688 1120.699219 609.875 C 1102.609375 624.640625 1083.65625 638.730469 1062.078125 650.3125 C 1051.25 656.03125 1039.707031 661.144531 1026.671875 664.3125 C 1020.136719 665.839844 1013.195312 666.855469 1005.835938 666.753906 C 1002.164062 666.710938 998.382812 666.316406 994.597656 665.640625 C 990.796875 664.890625 987.003906 663.78125 983.3125 662.289062 C 979.644531 660.734375 976.113281 658.824219 972.839844 656.589844 C 969.875 654.308594 966.867188 652.199219 964.234375 649.445312 C 961.445312 646.914062 959.113281 643.890625 956.777344 640.917969 C 955.734375 639.347656 954.707031 637.761719 953.699219 636.164062 C 953.164062 635.378906 952.726562 634.554688 952.316406 633.71875 L 951.058594 631.222656 C 947.828125 624.542969 945.65625 617.53125 944.582031 610.730469 L 944.125 608.160156 L 943.847656 605.632812 C 943.679688 603.953125 943.46875 602.253906 943.351562 600.582031 C 943.25 597.289062 943.011719 593.925781 943.171875 590.71875 C 943.449219 577.734375 945.460938 565.460938 948.222656 553.679688 C 950.988281 541.890625 954.476562 530.527344 958.320312 519.410156 C 966.039062 497.1875 975.144531 475.917969 984.613281 454.992188 C 994.085938 434.070312 1003.988281 413.515625 1013.785156 393.054688 C 1023.585938 372.59375 1033.308594 352.230469 1042.34375 331.769531 C 1051.332031 311.328125 1059.792969 290.726562 1065.890625 270.121094 C 1068.910156 259.84375 1071.289062 249.554688 1072.4375 239.660156 L 1072.738281 236.003906 L 1072.890625 234.179688 L 1072.929688 232.40625 C 1072.945312 231.226562 1073.003906 230.03125 1073 228.871094 L 1072.847656 225.46875 C 1072.519531 221.027344 1071.777344 216.890625 1070.515625 213.378906 C 1069.175781 209.925781 1067.402344 207.113281 1065.074219 204.71875 C 1064.480469 204.128906 1063.964844 203.46875 1063.214844 202.988281 L 1062.191406 202.179688 C 1061.839844 201.910156 1061.5625 201.613281 1061.09375 201.363281 C 1060.238281 200.84375 1059.390625 200.308594 1058.550781 199.761719 L 1055.878906 198.410156 C 1052.25 196.734375 1048.324219 195.582031 1044.117188 194.929688 C 1039.917969 194.257812 1035.386719 194.28125 1030.761719 194.605469 C 1021.46875 195.308594 1011.679688 197.9375 1002.007812 201.429688 C 992.324219 205.039062 982.707031 209.601562 973.265625 214.726562 C 954.382812 225.066406 936.203125 237.578125 918.617188 250.984375 C 901.027344 264.429688 884.011719 278.855469 867.457031 293.859375 C 850.90625 308.875 834.777344 324.445312 819.066406 340.445312 C 811.203125 348.441406 803.449219 356.542969 795.804688 364.742188 C 791.980469 368.839844 788.1875 372.960938 784.433594 377.105469 C 780.703125 381.226562 776.902344 385.472656 773.394531 389.519531 L 748.933594 368.488281 C 752.863281 363.953125 756.636719 359.746094 760.523438 355.445312 C 764.394531 351.175781 768.289062 346.945312 772.207031 342.738281 C 780.050781 334.332031 787.996094 326.03125 796.054688 317.835938 C 812.160156 301.433594 828.714844 285.445312 845.796875 269.949219 C 862.890625 254.464844 880.539062 239.488281 899.03125 225.347656 C 917.550781 211.246094 936.859375 197.890625 957.824219 186.402344 C 968.332031 180.699219 979.265625 175.472656 990.867188 171.15625 C 1002.519531 166.957031 1014.832031 163.503906 1028.214844 162.445312 C 1034.898438 161.964844 1041.792969 161.929688 1048.828125 163.015625 C 1055.84375 164.078125 1062.917969 166.097656 1069.589844 169.207031 C 1071.234375 170.03125 1072.886719 170.839844 1074.503906 171.71875 L 1079.171875 174.644531 C 1079.941406 175.09375 1080.726562 175.746094 1081.503906 176.339844 L 1083.824219 178.167969 C 1085.398438 179.335938 1086.789062 180.792969 1088.195312 182.21875 C 1093.800781 187.933594 1098.078125 194.988281 1100.761719 202.152344 C 1103.371094 209.339844 1104.539062 216.492188 1105.039062 223.355469 L 1105.257812 228.460938 C 1105.269531 230.132812 1105.203125 231.777344 1105.171875 233.4375 L 1105.105469 235.917969 L 1104.910156 238.335938 L 1104.503906 243.164062 C 1103.035156 255.839844 1100.199219 267.734375 1096.835938 279.234375 C 1090.023438 302.191406 1081.125 323.675781 1071.859375 344.789062 C 1062.546875 365.871094 1052.695312 386.492188 1042.882812 406.988281 C 1033.066406 427.484375 1023.257812 447.851562 1014 468.296875 C 1004.746094 488.734375 995.984375 509.273438 988.804688 529.960938 C 985.226562 540.296875 982.0625 550.675781 979.644531 560.996094 C 977.203125 571.304688 975.625 581.582031 975.425781 591.308594 C 975.28125 593.777344 975.503906 596.085938 975.542969 598.464844 C 975.625 599.625 975.78125 600.746094 975.890625 601.886719 L 976.058594 603.59375 L 976.367188 605.214844 C 977.03125 609.632812 978.367188 613.554688 980.054688 617.085938 L 980.703125 618.394531 C 980.90625 618.84375 981.125 619.277344 981.410156 619.652344 C 981.941406 620.441406 982.449219 621.242188 982.945312 622.054688 C 984.175781 623.488281 985.238281 625.046875 986.707031 626.300781 C 987.957031 627.71875 989.695312 628.796875 991.167969 630.042969 C 992.59375 631 994.074219 631.792969 995.625 632.472656 C 997.210938 633.089844 998.875 633.589844 1000.644531 633.953125 C 1002.449219 634.25 1004.324219 634.480469 1006.332031 634.5 C 1010.332031 634.558594 1014.71875 633.976562 1019.226562 632.925781 C 1028.292969 630.738281 1037.738281 626.714844 1046.949219 621.820312 C 1065.4375 611.929688 1083.195312 598.878906 1100.238281 584.933594 C 1117.292969 570.925781 1133.714844 555.828125 1149.699219 540.199219 C 1165.6875 524.566406 1181.238281 508.371094 1196.484375 491.851562 C 1211.722656 475.320312 1226.652344 458.457031 1241.335938 441.351562 C 1256.019531 424.246094 1270.464844 406.910156 1284.699219 389.386719 C 1298.933594 371.867188 1312.972656 354.167969 1326.820312 336.316406 C 1338.949219 320.6875 1350.933594 304.945312 1362.777344 289.097656 C 1343.109375 289.546875 1329.109375 281.429688 1322.027344 276.101562 C 1328.324219 267.746094 1334.582031 259.363281 1340.785156 250.957031 C 1345.058594 254.109375 1351.914062 257.488281 1361.53125 257.171875 C 1371.121094 256.863281 1383.605469 252.785156 1398.667969 241.070312 L 1423.976562 258.902344 C 1417.519531 277.449219 1417.300781 290.515625 1419.78125 299.945312 Z M 1419.78125 299.945312 " fill-opacity="1" fill-rule="nonzero"/></g></g></g><g clip-path="url(#2bb98defe2)"><path fill="#ff914d" d="M 123.226562 382.457031 L 123.226562 416.28125 C 82.253906 428.265625 76.136719 449.519531 76.136719 461.121094 L 40.894531 461.121094 C 40.894531 451.433594 43.125 433.898438 56.589844 416.992188 L 0.046875 416.992188 L 0.046875 381.75 L 56.589844 381.75 C 43.125 364.839844 40.894531 347.308594 40.894531 337.621094 L 76.136719 337.621094 C 76.136719 349.222656 82.253906 370.476562 123.226562 382.457031 Z M 123.226562 382.457031 " fill-opacity="1" fill-rule="nonzero"/></g><g fill="#161718" fill-opacity="1"><g transform="translate(208.09627, 456.063286)"><g><path d="M 3.378906 0 L 128.421875 0 L 128.421875 -33.796875 L 47.3125 -33.796875 L 47.3125 -44.777344 L 128.421875 -44.777344 L 128.421875 -73.503906 L 47.3125 -73.503906 L 47.3125 -84.488281 L 128.421875 -84.488281 L 128.421875 -118.285156 L 3.378906 -118.285156 Z M 3.378906 0 "/></g></g></g><g fill="#161718" fill-opacity="1"><g transform="translate(338.200644, 456.063286)"><g><path d="M 3.378906 0 L 125.042969 0 L 125.042969 -37.175781 L 47.3125 -37.175781 L 47.3125 -118.285156 L 3.378906 -118.285156 Z M 3.378906 0 "/></g></g></g><g fill="#161718" fill-opacity="1"><g transform="translate(464.925681, 456.063286)"><g><path d="M 3.378906 0 L 128.421875 0 L 128.421875 -33.796875 L 47.3125 -33.796875 L 47.3125 -44.777344 L 128.421875 -44.777344 L 128.421875 -73.503906 L 47.3125 -73.503906 L 47.3125 -84.488281 L 128.421875 -84.488281 L 128.421875 -118.285156 L 3.378906 -118.285156 Z M 3.378906 0 "/></g></g></g><g fill="#161718" fill-opacity="1"><g transform="translate(595.030055, 456.063286)"><g><path d="M 50.691406 0 L 115.917969 0 L 164.921875 -118.285156 L 116.59375 -118.285156 L 83.304688 -30.414062 L 50.015625 -118.285156 L 1.691406 -118.285156 Z M 50.691406 0 "/></g></g></g><g fill="#161718" fill-opacity="1"><g transform="translate(761.631232, 456.063286)"><g><path d="M 1.691406 0 L 50.015625 0 L 58.128906 -21.292969 L 108.484375 -21.292969 L 116.59375 0 L 164.921875 0 L 115.917969 -118.285156 L 50.691406 -118.285156 Z M 69.617188 -51.707031 L 83.304688 -87.867188 L 96.992188 -51.707031 Z M 69.617188 -51.707031 "/></g></g></g><g fill="#161718" fill-opacity="1"><g transform="translate(928.23241, 456.063286)"><g><path d="M 52.382812 0 L 96.316406 0 L 96.316406 -81.109375 L 147.007812 -81.109375 L 147.007812 -118.285156 L 1.691406 -118.285156 L 1.691406 -81.109375 L 52.382812 -81.109375 Z M 52.382812 0 "/></g></g></g><g fill="#161718" fill-opacity="1"><g transform="translate(1076.923195, 456.063286)"><g><path d="M 3.378906 0 L 128.421875 0 L 128.421875 -33.796875 L 47.3125 -33.796875 L 47.3125 -44.777344 L 128.421875 -44.777344 L 128.421875 -73.503906 L 47.3125 -73.503906 L 47.3125 -84.488281 L 128.421875 -84.488281 L 128.421875 -118.285156 L 3.378906 -118.285156 Z M 3.378906 0 "/></g></g></g><g fill="#ff914d" fill-opacity="1"><g transform="translate(208.09627, 550.838433)"><g><path d="M 26.40625 0 L 45.164062 0 L 45.164062 -16.59375 L 70.847656 -50.5 L 49.203125 -50.5 L 35.785156 -31.742188 L 22.363281 -50.5 L 0.722656 -50.5 L 26.40625 -16.59375 Z M 26.40625 0 "/></g></g></g><g fill="#ff914d" fill-opacity="1"><g transform="translate(279.605647, 550.838433)"><g><path d="M 32.464844 0.722656 C 54.613281 0.722656 64.207031 -7.792969 64.207031 -25.324219 C 64.207031 -42.78125 54.613281 -51.222656 32.464844 -51.222656 C 10.246094 -51.222656 0.722656 -42.855469 0.722656 -25.324219 C 0.722656 -7.71875 10.246094 0.722656 32.464844 0.722656 Z M 32.464844 -15.152344 C 21.425781 -15.152344 19.480469 -19.910156 19.480469 -25.324219 C 19.480469 -30.660156 21.355469 -35.351562 32.464844 -35.351562 C 43.574219 -35.351562 45.453125 -30.589844 45.453125 -25.324219 C 45.453125 -19.984375 43.503906 -15.152344 32.464844 -15.152344 Z M 32.464844 -15.152344 "/></g></g></g><g fill="#ff914d" fill-opacity="1"><g transform="translate(344.483106, 550.838433)"><g><path d="M 33.1875 0.722656 C 55.335938 0.722656 64.929688 -7.792969 64.929688 -25.324219 L 64.929688 -50.5 L 46.171875 -50.5 L 46.171875 -25.324219 C 46.171875 -19.984375 44.226562 -15.152344 33.1875 -15.152344 C 22.148438 -15.152344 20.199219 -19.910156 20.199219 -25.324219 L 20.199219 -50.5 L 1.441406 -50.5 L 1.441406 -25.324219 C 1.441406 -7.71875 10.964844 0.722656 33.1875 0.722656 Z M 33.1875 0.722656 "/></g></g></g><g fill="#ff914d" fill-opacity="1"><g transform="translate(410.802223, 550.838433)"><g><path d="M 1.441406 0 L 20.199219 0 L 20.199219 -11.832031 L 31.238281 -11.832031 L 38.238281 0 L 60.457031 0 L 51.511719 -14.5 C 57.066406 -17.746094 60.457031 -23.808594 60.457031 -31.167969 C 60.457031 -42.421875 52.59375 -50.5 41.121094 -50.5 L 1.441406 -50.5 Z M 20.199219 -27.703125 L 20.199219 -34.628906 L 37.515625 -34.628906 C 39.390625 -34.628906 41.699219 -34.628906 41.699219 -31.167969 C 41.699219 -27.703125 39.390625 -27.703125 37.515625 -27.703125 Z M 20.199219 -27.703125 "/></g></g></g><g fill="#ff914d" fill-opacity="1"><g transform="translate(471.931156, 550.838433)"><g/></g></g><g fill="#ff914d" fill-opacity="1"><g transform="translate(500.765548, 550.838433)"><g><path d="M 1.441406 0 L 47.617188 0 C 59.085938 0 64.066406 -6.636719 64.066406 -14.933594 C 64.066406 -20.417969 60.890625 -25.035156 56.488281 -28.207031 C 58.941406 -31.09375 60.457031 -34.414062 60.457031 -37.660156 C 60.457031 -45.308594 56.921875 -50.5 45.453125 -50.5 L 1.441406 -50.5 Z M 20.199219 -32.753906 L 20.199219 -38.238281 L 37.515625 -38.238281 C 39.390625 -38.238281 41.699219 -38.238281 41.699219 -35.496094 C 41.699219 -32.753906 39.390625 -32.753906 37.515625 -32.753906 Z M 20.199219 -13.707031 L 20.199219 -19.046875 L 41.121094 -19.046875 C 43 -19.046875 45.308594 -19.046875 45.308594 -16.375 C 45.308594 -13.707031 43 -13.707031 41.121094 -13.707031 Z M 20.199219 -13.707031 "/></g></g></g><g fill="#ff914d" fill-opacity="1"><g transform="translate(565.498818, 550.838433)"><g><path d="M 1.441406 0 L 20.199219 0 L 20.199219 -11.832031 L 31.238281 -11.832031 L 38.238281 0 L 60.457031 0 L 51.511719 -14.5 C 57.066406 -17.746094 60.457031 -23.808594 60.457031 -31.167969 C 60.457031 -42.421875 52.59375 -50.5 41.121094 -50.5 L 1.441406 -50.5 Z M 20.199219 -27.703125 L 20.199219 -34.628906 L 37.515625 -34.628906 C 39.390625 -34.628906 41.699219 -34.628906 41.699219 -31.167969 C 41.699219 -27.703125 39.390625 -27.703125 37.515625 -27.703125 Z M 20.199219 -27.703125 "/></g></g></g><g fill="#ff914d" fill-opacity="1"><g transform="translate(626.62775, 550.838433)"><g><path d="M 0.722656 0 L 21.355469 0 L 24.816406 -9.089844 L 46.316406 -9.089844 L 49.78125 0 L 70.414062 0 L 49.492188 -50.5 L 21.644531 -50.5 Z M 29.722656 -22.078125 L 35.566406 -37.515625 L 41.410156 -22.078125 Z M 29.722656 -22.078125 "/></g></g></g><g fill="#ff914d" fill-opacity="1"><g transform="translate(697.704562, 550.838433)"><g><path d="M 1.441406 0 L 20.199219 0 L 20.199219 -29.796875 L 41.988281 0 L 66.515625 0 L 66.515625 -50.5 L 47.761719 -50.5 L 47.761719 -20.707031 L 25.972656 -50.5 L 1.441406 -50.5 Z M 1.441406 0 "/></g></g></g><g fill="#ff914d" fill-opacity="1"><g transform="translate(765.609603, 550.838433)"><g><path d="M 1.441406 0 L 38.957031 0 C 51.152344 0 62.621094 -8.082031 62.621094 -25.25 C 62.621094 -42.421875 51.152344 -50.5 38.957031 -50.5 L 1.441406 -50.5 Z M 20.199219 -15.871094 L 20.199219 -34.628906 L 33.1875 -34.628906 C 37.226562 -34.628906 43.863281 -34.628906 43.863281 -25.25 C 43.863281 -15.871094 37.226562 -15.871094 33.1875 -15.871094 Z M 20.199219 -15.871094 "/></g></g></g></svg>